<svg width="18" height="18" viewBox="0 0 18 18" fill="none" xmlns="http://www.w3.org/2000/svg">
<path d="M4.19 5.79004H0.58C0.540227 5.78864 0.500592 5.79545 0.463563 5.81003C0.426533 5.82461 0.392901 5.84666 0.36476 5.8748C0.336619 5.90294 0.314572 5.93657 0.29999 5.9736C0.285408 6.01063 0.278603 6.05027 0.28 6.09004V17.69C0.28 17.85 0.42 17.98 0.58 17.98H4.19C4.35 17.98 4.48 17.85 4.48 17.69V6.09004C4.48134 6.05112 4.47483 6.01234 4.46086 5.97599C4.44689 5.93964 4.42574 5.90648 4.39868 5.87848C4.37162 5.85049 4.33919 5.82823 4.30334 5.81303C4.26749 5.79784 4.22894 5.79002 4.19 5.79004ZM2.38 0.0200405C1.7496 0.0226727 1.14576 0.274267 0.699994 0.720034C0.254227 1.1658 0.0026322 1.76964 0 2.40004C0.0026322 3.03045 0.254227 3.63428 0.699994 4.08005C1.14576 4.52581 1.7496 4.77741 2.38 4.78004C2.69339 4.78136 3.00395 4.72077 3.29386 4.60175C3.58377 4.48274 3.84732 4.30763 4.06938 4.0865C4.29145 3.86537 4.46765 3.60255 4.58788 3.31314C4.70811 3.02373 4.77 2.71343 4.77 2.40004C4.77 2.08665 4.70811 1.77635 4.58788 1.48694C4.46765 1.19753 4.29145 0.934716 4.06938 0.713581C3.84732 0.492446 3.58377 0.317346 3.29386 0.198329C3.00395 0.0793125 2.69339 0.0187238 2.38 0.0200405ZM13.38 5.50004C11.93 5.50004 10.86 6.13004 10.21 6.83004V6.08004C10.21 6.0411 10.2022 6.00256 10.187 5.9667C10.1718 5.93085 10.1496 5.89843 10.1216 5.87136C10.0936 5.8443 10.0604 5.82315 10.0241 5.80918C9.98771 5.79521 9.94892 5.7887 9.91 5.79004H6.46C6.42023 5.78864 6.38059 5.79545 6.34356 5.81003C6.30653 5.82461 6.2729 5.84666 6.24476 5.8748C6.21662 5.90294 6.19457 5.93657 6.17999 5.9736C6.16541 6.01063 6.1586 6.05027 6.16 6.09004V17.69C6.16 17.85 6.29 17.98 6.46 17.98H10.06C10.1379 17.9801 10.2127 17.9499 10.2687 17.8957C10.3247 17.8416 10.3574 17.7679 10.36 17.69V11.95C10.36 10.01 10.88 9.25004 12.23 9.25004C13.7 9.25004 13.81 10.47 13.81 12.05V17.69C13.81 17.85 13.94 17.98 14.11 17.98H17.71C17.87 17.98 18 17.85 18 17.69V11.32C18 8.44004 17.45 5.50004 13.38 5.50004Z" fill="white"/>
</svg>
