<svg width="21" height="11" viewBox="0 0 21 11" fill="none" xmlns="http://www.w3.org/2000/svg">
<path d="M20.4845 9.71655C20.4642 9.67881 20.4419 9.64209 20.4177 9.60655C19.8694 8.80671 19.1929 8.09515 18.4131 7.49822L18.4036 7.47072H18.3941L18.375 7.45239C17.9263 7.06739 17.64 6.81072 17.5159 6.66405C17.3059 6.41655 17.2581 6.15072 17.3727 5.89405C17.4586 5.69239 17.7736 5.27989 18.3177 4.63822L18.9954 3.83155C20.1981 2.36489 20.7231 1.42989 20.5609 1.01739L20.5036 0.925721C20.4559 0.870721 20.3509 0.815721 20.1791 0.769888C19.9603 0.719249 19.7334 0.709909 19.5109 0.742388L16.4945 0.760721C16.4257 0.743234 16.3533 0.743234 16.2845 0.760721L16.1509 0.797388L16.1031 0.815721L16.0554 0.852388C16.0123 0.876732 15.9736 0.907698 15.9409 0.944054C15.8999 0.99705 15.8677 1.0558 15.8454 1.11822C15.5291 1.86048 15.1525 2.5777 14.7191 3.26322C14.4613 3.65739 14.2227 3.99655 14.0031 4.28989C13.8406 4.51788 13.6586 4.73251 13.4591 4.93155C13.3368 5.05019 13.206 5.16046 13.0677 5.26155C12.9436 5.35322 12.8577 5.38072 12.7909 5.37155C12.7335 5.35993 12.6762 5.34771 12.6191 5.33489C12.5192 5.27683 12.4369 5.19465 12.3804 5.09655C12.3149 4.98313 12.2727 4.85864 12.2563 4.72989C12.2399 4.59905 12.2303 4.46749 12.2277 4.33572C12.223 4.18298 12.223 4.03013 12.2277 3.87739L12.2372 3.47405C12.2372 3.23572 12.2372 2.96989 12.2563 2.68572L12.285 2.01655V1.48489C12.285 1.30155 12.285 1.15489 12.2563 1.05405C12.23 0.949425 12.1916 0.847957 12.1418 0.751554C12.0971 0.656794 12.024 0.576999 11.9318 0.522388C11.8216 0.462558 11.7025 0.419279 11.5786 0.394054C11.1133 0.306513 10.64 0.263525 10.1659 0.265721C9.3247 0.2011 8.47824 0.278664 7.66496 0.494888C7.52178 0.568221 7.38815 0.659888 7.2736 0.779054C7.14951 0.925721 7.13042 0.999054 7.21633 1.00822C7.63633 1.07239 7.93224 1.20072 8.1136 1.42072L8.17087 1.53989C8.30385 1.9066 8.38413 2.28901 8.40951 2.67655C8.47495 3.33453 8.44281 3.99809 8.31405 4.64739C8.29129 4.80342 8.24296 4.95502 8.17087 5.09655C8.13394 5.1662 8.09249 5.23356 8.04678 5.29822C8.03253 5.32068 8.01289 5.33953 7.98951 5.35322C7.89765 5.38472 7.80068 5.40024 7.70315 5.39905C7.57735 5.38541 7.45818 5.33772 7.35951 5.26155C7.19857 5.15642 7.05118 5.03334 6.92042 4.89489C6.73344 4.69167 6.56423 4.47399 6.41451 4.24405C6.20289 3.9207 6.00855 3.58721 5.83224 3.24489L5.66042 2.96989C5.33173 2.393 5.02917 1.80272 4.7536 1.20072C4.70508 1.07786 4.61845 0.972274 4.50542 0.898221L4.44815 0.870721C4.39843 0.833526 4.34388 0.802711 4.28587 0.779054C4.20553 0.751918 4.12229 0.733471 4.03769 0.724054L1.17406 0.742388C0.887692 0.742388 0.687237 0.806554 0.582237 0.925721L0.53451 0.980721C0.510279 1.02917 0.500373 1.08307 0.505873 1.13655C0.505873 1.20072 0.524964 1.29239 0.572692 1.39322C1.57718 3.54434 2.8359 5.57742 4.32406 7.45239C4.65392 7.84853 4.99776 8.23375 5.35496 8.60739L5.62224 8.83655C5.78451 8.99239 6.03269 9.17572 6.35724 9.38655C6.70754 9.61159 7.06739 9.8226 7.43587 10.0191C8.32981 10.4703 9.32797 10.6973 10.3377 10.6791H11.5404C11.7452 10.6744 11.9416 10.5996 12.0941 10.4682L12.1322 10.4224C12.1702 10.369 12.1992 10.3103 12.2181 10.2482C12.2372 10.1657 12.2468 10.0832 12.2468 9.98239C12.2376 9.73624 12.26 9.48993 12.3136 9.24905C12.3709 9.01989 12.4281 8.85489 12.5045 8.74489C12.5991 8.57704 12.7331 8.43267 12.8959 8.32322C12.927 8.31191 12.9589 8.30272 12.9913 8.29572C13.1536 8.24072 13.3445 8.29572 13.5736 8.44239C13.8027 8.58905 14.0127 8.77239 14.2131 8.99239C14.4041 9.21239 14.6522 9.45989 14.9291 9.73489C15.2154 10.0099 15.4541 10.2116 15.6641 10.3491L15.8741 10.4591C16.0077 10.5416 16.1891 10.6057 16.4181 10.6699C16.6377 10.7341 16.8286 10.7616 16.9909 10.7249L19.6731 10.6791C19.9404 10.6791 20.1504 10.6424 20.2936 10.5599C20.4368 10.4866 20.5227 10.3949 20.5513 10.3032C20.5785 10.1948 20.5785 10.0817 20.5513 9.97322C20.5387 9.8886 20.5163 9.80559 20.4845 9.72572V9.71655Z" fill="white"/>
</svg>
