<svg width="10" height="18" viewBox="0 0 10 18" fill="none" xmlns="http://www.w3.org/2000/svg">
<path d="M9.63634 0.387207H7.38179C4.85452 0.387207 3.21816 2.03421 3.21816 4.59021V6.52521H0.954521C0.862044 6.52518 0.773215 6.56092 0.70698 6.62481C0.640745 6.6887 0.602347 6.77569 0.599976 6.86721V9.67521C0.599976 9.86421 0.763612 10.0262 0.963612 10.0262H3.21816V17.1002C3.21816 17.2892 3.38179 17.4512 3.58179 17.4512H6.52725C6.62055 17.4489 6.7094 17.4112 6.7754 17.3459C6.8414 17.2805 6.87949 17.1926 6.88179 17.1002V10.0262H9.51816C9.6146 10.0262 9.70709 9.98828 9.77529 9.92077C9.84348 9.85325 9.88179 9.76169 9.88179 9.66621V6.87621C9.88304 6.82859 9.87449 6.78123 9.85666 6.73699C9.83883 6.69275 9.81209 6.65257 9.77807 6.6189C9.74405 6.58522 9.70346 6.55874 9.65878 6.54109C9.6141 6.52344 9.56625 6.51497 9.51816 6.51621H6.88179V4.87821C6.88179 4.09521 7.06361 3.69021 8.11816 3.69021H9.63634C9.72879 3.68786 9.81665 3.64985 9.88119 3.58427C9.94572 3.5187 9.98182 3.43076 9.98179 3.33921V0.729207C9.97949 0.639221 9.94236 0.55355 9.87806 0.4899C9.81377 0.42625 9.72724 0.389486 9.63634 0.387207Z" fill="white"/>
</svg>
