<svg width="134" height="94" viewBox="0 0 134 94" fill="none" xmlns="http://www.w3.org/2000/svg">
<g clip-path="url(#clip0)">
<path d="M6.02629e-05 54.665C0.145618 54.665 0.300879 54.6746 0.446436 54.6746C6.1911 54.6746 11.9261 54.6746 17.6707 54.6746C18.2529 54.6746 18.1753 54.5884 18.1753 55.1917C18.1753 59.1367 18.1753 63.0912 18.1753 67.0362C18.1753 67.5342 18.2238 67.4767 17.7386 67.4767C11.9261 67.4767 6.10376 67.4767 0.291175 67.4767C0.194137 67.4767 0.0873946 67.4767 -0.00964355 67.4767C6.02629e-05 63.2157 6.02629e-05 58.9452 6.02629e-05 54.665Z" fill="#136EAF"/>
<path d="M64.7827 0C64.7827 0.143628 64.773 0.296832 64.773 0.44046C64.773 4.3663 64.773 8.28257 64.773 12.2084C64.773 12.7159 64.8215 12.6585 64.3072 12.6585C58.5723 12.6585 52.8276 12.6585 47.0927 12.6585C46.5784 12.6585 46.6269 12.7063 46.6269 12.2084C46.6269 8.28257 46.6269 4.3663 46.6269 0.44046C46.6269 0.296832 46.6172 0.143628 46.6172 0C52.6724 0 58.7275 0 64.7827 0Z" fill="#20BCE0"/>
<path d="M134 38.1478C133.981 38.1478 133.961 38.1478 133.932 38.1478C133.835 38.0712 133.816 37.9658 133.816 37.8509C133.796 37.219 133.796 36.5774 133.816 35.9455C133.816 35.8689 133.835 35.8018 133.874 35.7348C133.903 35.6869 133.942 35.6774 134 35.6965C134 36.52 134 37.3339 134 38.1478Z" fill="#B2CDE6"/>
<path d="M134 35.706H133.971H133.942C133.777 35.5049 133.777 35.3134 133.942 35.1123C133.961 35.1123 133.981 35.1123 134.01 35.1123C134 35.3134 134 35.5049 134 35.706Z" fill="#DCE7F3"/>
<path d="M133.942 35.1124C133.942 35.3134 133.942 35.505 133.942 35.706C133.942 36.5199 133.942 37.3434 133.942 38.1573C133.806 42.9545 132.671 47.5123 130.516 51.802C127.925 56.9822 124.199 61.1761 119.134 64.1349C116.368 65.7435 113.399 66.8064 110.226 67.2756C109.022 67.4575 107.819 67.5532 106.606 67.5532C95.6505 67.5532 84.6852 67.5532 73.7296 67.5532C73.1377 67.5532 73.2153 67.6298 73.2153 67.0362C73.2153 61.3293 73.2153 55.6321 73.2153 49.9252C73.2153 49.8486 73.2153 49.7816 73.2153 49.705C73.2153 49.2167 73.2541 49.2646 72.7786 49.2646C67.2475 49.2646 61.7163 49.2646 56.1851 49.2646C55.6611 49.2646 55.7193 49.322 55.7193 48.8145C55.7193 45.1089 55.7193 41.4033 55.7193 37.7073C55.7193 37.6498 55.7193 37.5828 55.7193 37.5253C55.729 37.2572 55.729 37.2572 55.9813 37.2476C56.0687 37.2476 56.156 37.2476 56.2433 37.2476C65.9569 37.2476 75.6607 37.2476 85.3742 37.2476C85.9758 37.2476 85.8885 37.1806 85.8885 37.7647C85.8885 43.2705 85.8885 48.7762 85.8885 54.282C85.8885 54.3586 85.8885 54.4256 85.8885 54.5022C85.8885 54.9427 85.8497 54.8948 86.2961 54.8948C92.0892 54.8948 97.8824 54.8948 103.676 54.8948C104.627 54.8948 105.578 54.9044 106.529 54.8086C109.663 54.5118 112.535 53.5638 114.981 51.5339C116.64 50.1455 117.872 48.4411 118.784 46.4973C119.667 44.611 120.211 42.6289 120.531 40.5894C120.832 38.6648 120.929 36.7402 120.871 34.7964C120.783 31.6557 120.415 28.5438 119.541 25.518C118.852 23.1529 117.892 20.9123 116.456 18.8919C115 16.8333 113.166 15.1767 110.856 14.0852C109.304 13.3575 107.674 12.9361 105.956 12.7925C105.383 12.7446 104.811 12.7351 104.229 12.7351C94.0591 12.7351 83.8895 12.7351 73.7102 12.7351C73.1474 12.7351 73.2153 12.8021 73.2153 12.2371C73.2153 8.34003 73.2153 4.43334 73.2153 0.536222C73.2153 0.0287353 73.1668 0.0861866 73.6811 0.0861866C83.938 0.0861866 94.2047 0.0861866 104.462 0.0861866C107.936 0.0861866 111.254 0.813904 114.427 2.22146C117.94 3.7918 120.968 6.0324 123.588 8.80922C127.634 13.0989 130.351 18.1355 132.079 23.7178C132.777 25.9872 133.282 28.2948 133.592 30.6503C133.767 32.1345 133.903 33.6186 133.942 35.1124Z" fill="#136EAF"/>
<path d="M56.0105 18.0588C58.8634 18.0588 61.7163 18.0588 64.5692 18.0588C64.6663 18.0588 64.773 18.0588 64.87 18.0588C65.0156 18.0492 65.0738 18.1162 65.0738 18.2598C65.0738 18.346 65.0738 18.4322 65.0738 18.5184C65.0738 22.4825 65.0738 26.4467 65.0738 30.4108C65.0738 30.8991 65.1223 30.8704 64.608 30.8704C58.8634 30.8704 53.1284 30.8704 47.3838 30.8704C46.8598 30.8704 46.9277 30.9087 46.9277 30.4108C46.9277 26.4467 46.9277 22.4825 46.9277 18.5184C46.9277 18.4322 46.9374 18.346 46.9277 18.2598C46.918 18.1162 46.9762 18.0588 47.1218 18.0588C47.2188 18.0588 47.3255 18.0588 47.4226 18.0588C50.2852 18.0588 53.1478 18.0588 56.0105 18.0588Z" fill="#0086C1"/>
<path d="M37.8546 49.5807C34.992 49.5807 32.1294 49.5807 29.257 49.5807C28.7718 49.5807 28.8009 49.619 28.8009 49.1498C28.8009 45.1761 28.8009 41.2023 28.8009 37.2286C28.8009 37.1712 28.8009 37.1041 28.8009 37.0467C28.7912 36.8743 28.8495 36.7882 29.0338 36.8073C29.1212 36.8169 29.2085 36.8073 29.2958 36.8073C35.0114 36.8073 40.7269 36.8073 46.4425 36.8073C46.9665 36.8073 46.9083 36.7594 46.9083 37.2574C46.9083 41.2119 46.9083 45.1569 46.9083 49.1115C46.9083 49.6381 46.9762 49.5902 46.4328 49.5902C43.5896 49.5807 40.7172 49.5807 37.8546 49.5807Z" fill="#00A5DB"/>
<path d="M55.6903 67.4861C52.8374 67.4861 49.9845 67.4861 47.1413 67.4861C47.0442 67.4861 46.9375 67.4861 46.8404 67.4861C46.7046 67.4957 46.627 67.4382 46.6367 67.2946C46.6367 67.2084 46.6367 67.1223 46.6367 67.0361C46.6367 63.1198 46.6367 59.2131 46.6367 55.2968C46.6367 54.8181 46.5687 54.8277 47.0927 54.8277C52.8374 54.8277 58.5724 54.8277 64.317 54.8277C64.841 54.8277 64.7828 54.8181 64.7828 55.2873C64.7828 59.2035 64.7828 63.1102 64.7828 67.0265C64.7828 67.1127 64.7828 67.1988 64.7828 67.285C64.7925 67.4287 64.7343 67.4957 64.5887 67.4861C64.4917 67.4861 64.385 67.4861 64.2879 67.4861C61.4156 67.4861 58.553 67.4861 55.6903 67.4861Z" fill="#20BCE0"/>
<path d="M39.1161 24.4455C39.1161 26.418 39.1161 28.4001 39.1161 30.3725C39.1161 30.4491 39.1161 30.5162 39.1161 30.5928C39.1064 30.8705 39.1064 30.8705 38.8153 30.88C38.728 30.88 38.6406 30.88 38.5533 30.88C34.7106 30.88 30.8776 30.88 27.0349 30.88C26.9378 30.88 26.8311 30.88 26.7341 30.88C26.4721 30.8705 26.4527 30.8513 26.443 30.6024C26.443 30.5258 26.443 30.4587 26.443 30.3821C26.443 26.4276 26.443 22.4826 26.443 18.528C26.443 18.0205 26.4041 18.0684 26.9087 18.0684C30.8194 18.0684 34.7397 18.0684 38.6504 18.0684C39.155 18.0684 39.1258 18.0205 39.1258 18.5184C39.1161 20.4909 39.1161 22.473 39.1161 24.4455Z" fill="#6FCCDD"/>
<path d="M85.2093 24.4742C85.2093 26.4371 85.2093 28.4001 85.2093 30.363C85.2093 30.4204 85.2093 30.4875 85.2093 30.5449C85.2093 30.8609 85.1996 30.8705 84.8794 30.8705C80.8911 30.8705 76.9029 30.8705 72.9146 30.8705C72.5458 30.8705 72.5361 30.8705 72.5361 30.4683C72.5361 26.7435 72.5361 23.0188 72.5361 19.294C72.5361 18.9972 72.5361 18.7003 72.5361 18.4035C72.5361 18.0684 72.5361 18.0684 72.8952 18.0684C72.934 18.0684 72.9728 18.0684 73.0116 18.0684C76.9223 18.0684 80.8426 18.0684 84.7532 18.0684C85.2772 18.0684 85.219 18.0205 85.219 18.5184C85.2093 20.5005 85.2093 22.4921 85.2093 24.4742Z" fill="#20BCE0"/>
<path d="M39.1162 61.1855C39.1162 63.1484 39.1162 65.1113 39.1162 67.0743C39.1162 67.17 39.1162 67.2753 39.1162 67.3711C39.1162 67.5147 39.0483 67.5722 38.9124 67.5626C38.8251 67.5626 38.7378 67.5626 38.6504 67.5626C34.7301 67.5626 30.8194 67.5626 26.8991 67.5626C26.4042 67.5626 26.4333 67.6009 26.4333 67.103C26.4333 63.1484 26.4333 59.2034 26.4333 55.2489C26.4333 54.6935 26.4333 54.751 26.9476 54.751C30.8485 54.751 34.7495 54.751 38.6601 54.751C39.1453 54.751 39.1162 54.7127 39.1162 55.1818C39.1162 57.1831 39.1162 59.1843 39.1162 61.1855Z" fill="#6FCCDD"/>
<path d="M21.7754 43.1939C21.7754 45.1472 21.7754 47.091 21.7754 49.0443C21.7754 49.1305 21.7754 49.2167 21.7754 49.3029C21.7657 49.5806 21.7657 49.5901 21.4746 49.5901C20.1646 49.5901 18.8449 49.5901 17.5349 49.5901C14.8857 49.5901 12.2366 49.5901 9.57775 49.5901C9.09256 49.5901 9.12167 49.6284 9.12167 49.1497C9.12167 45.1759 9.12167 41.2022 9.12167 37.2285C9.12167 37.1998 9.12167 37.1806 9.12167 37.1519C9.12167 36.7976 9.12167 36.7976 9.46131 36.7976C9.50012 36.7976 9.53894 36.7976 9.57775 36.7976C13.4884 36.7976 17.4087 36.7976 21.3194 36.7976C21.8143 36.7976 21.7657 36.7593 21.7657 37.2285C21.7754 39.2202 21.7754 41.2022 21.7754 43.1939Z" fill="#20BCE0"/>
<path d="M60.6586 82.663C60.4839 82.663 60.3092 82.663 60.1346 82.663C57.4175 82.663 54.7101 82.663 51.9931 82.663C51.9154 82.663 51.8475 82.663 51.7699 82.663C51.4885 82.6535 51.4788 82.6535 51.4788 82.3758C51.4788 81.5523 51.4788 80.7193 51.4788 79.8958C51.4788 79.6373 51.4885 79.6277 51.7505 79.6277C51.9251 79.6277 52.0998 79.6277 52.2745 79.6277C56.4374 79.6277 60.6003 79.6277 64.773 79.6277C64.8603 79.6277 64.9477 79.6277 65.035 79.6277C65.3164 79.6373 65.3164 79.6373 65.3261 79.9149C65.3261 80.7288 65.3164 81.5427 65.3358 82.3566C65.3358 82.5769 65.2679 82.7205 65.1126 82.8641C63.5503 84.2717 62.0074 85.6888 60.4548 87.1059C59.1739 88.2741 57.9027 89.4327 56.6218 90.6009C56.5733 90.6488 56.4859 90.6775 56.5053 90.8115C56.6315 90.8115 56.7576 90.8115 56.8935 90.8115C59.6979 90.8115 62.4926 90.8115 65.297 90.8115C65.7628 90.8115 65.7143 90.7637 65.7143 91.2328C65.7143 91.9989 65.7143 92.7649 65.7143 93.5309C65.7143 93.8469 65.7143 93.8469 65.3843 93.8469C62.7158 93.8469 60.0569 93.8469 57.3884 93.8469C55.6126 93.8469 53.8368 93.8469 52.061 93.8469C51.9737 93.8469 51.8863 93.8469 51.799 93.8469C51.6534 93.8565 51.6049 93.7799 51.6049 93.6458C51.6049 93.3873 51.6049 93.1287 51.6049 92.8702C51.6049 92.3053 51.6146 91.7308 51.6049 91.1658C51.5952 90.9264 51.6728 90.7541 51.8572 90.5913C53.2254 89.3944 54.5743 88.1879 55.9328 86.9814C57.466 85.6218 58.9992 84.2621 60.5421 82.9024C60.6003 82.845 60.6683 82.7971 60.7362 82.7492C60.6974 82.7205 60.678 82.6918 60.6586 82.663Z" fill="#0E4F7F"/>
<path d="M98.2803 85.478C98.1348 84.1375 97.6981 82.9023 96.8927 81.8107C95.8156 80.3744 94.4085 79.5797 92.5454 79.6084C90.0806 79.6467 87.6159 79.618 85.1511 79.618C85.0637 79.618 84.9764 79.618 84.8891 79.618C84.7435 79.6084 84.6853 79.6754 84.695 79.8191C84.7047 79.9053 84.695 79.9914 84.695 80.0776C84.695 82.2895 84.695 84.4918 84.695 86.7037C84.695 88.973 84.695 91.2423 84.695 93.5212C84.695 93.8468 84.695 93.8468 85.0152 93.8564C85.0637 93.8564 85.1123 93.8564 85.1608 93.8564C87.6838 93.8564 90.2165 93.8468 92.7395 93.8564C93.7681 93.8564 94.6802 93.5499 95.4954 92.9371C96.3493 92.2956 96.98 91.4721 97.4264 90.5242C98.2027 88.9251 98.4744 87.2399 98.2803 85.478ZM93.8942 89.3751C93.6613 89.7869 93.3702 90.1603 92.9918 90.4476C92.6715 90.687 92.3319 90.821 91.9146 90.821C90.8375 90.8114 89.7604 90.821 88.693 90.821C88.3339 90.821 88.3339 90.821 88.3339 90.4476C88.3339 89.2028 88.3339 87.958 88.3339 86.7132C88.3339 85.5259 88.3339 84.3482 88.3339 83.1608C88.3339 83.0746 88.3436 82.9885 88.3339 82.9023C88.3145 82.7204 88.4019 82.6725 88.5765 82.6725C89.1976 82.6821 89.8283 82.6725 90.4494 82.6725C91.0025 82.6725 91.5459 82.6821 92.099 82.6725C92.5939 82.6629 93.0015 82.8448 93.3508 83.1704C93.8845 83.6683 94.2047 84.2907 94.3891 84.9801C94.8064 86.5026 94.6705 87.9772 93.8942 89.3751Z" fill="#0E4F7F"/>
<path d="M33.6141 85.143C33.42 83.8503 32.9251 82.6726 32.0809 81.6576C31.0232 80.3841 29.6937 79.6851 27.9859 79.7042C25.5114 79.733 23.0369 79.7138 20.5624 79.7138C20.0578 79.7138 20.1064 79.6468 20.1064 80.1639C20.1064 84.6163 20.1064 89.0688 20.1064 93.5309C20.1064 93.6649 20.1161 93.799 20.1258 93.933C22.7652 93.933 25.4144 93.933 28.0538 93.933C28.2382 93.933 28.4225 93.9426 28.6166 93.9426C29.4414 93.8468 30.1886 93.5596 30.8582 93.0617C31.6733 92.4584 32.2847 91.6828 32.7407 90.7923C33.6432 89.0114 33.9052 87.1155 33.6141 85.143ZM29.422 89.1933C29.1891 89.672 28.8883 90.1125 28.4711 90.4668C28.1314 90.7541 27.7433 90.9168 27.2775 90.9168C26.1907 90.8977 25.1038 90.9168 24.017 90.9073C23.7162 90.9073 23.7162 90.9073 23.7162 90.6008C23.7162 89.3465 23.7162 88.0826 23.7162 86.8282C23.7162 85.5834 23.7162 84.3386 23.7162 83.0939C23.7162 82.7587 23.7162 82.7587 24.0655 82.7587C25.1815 82.7587 26.2877 82.7683 27.4036 82.7587C28.0247 82.7492 28.5196 82.9885 28.9174 83.4386C29.3929 83.9652 29.6646 84.5972 29.8393 85.277C30.1692 86.6175 30.0334 87.9294 29.422 89.1933Z" fill="#0E4F7F"/>
<path d="M42.4639 79.6946C38.4562 79.685 35.2054 82.864 35.2054 86.7898C35.2054 90.7348 38.4368 93.9138 42.4348 93.9234C46.4328 93.933 49.6932 90.7444 49.6932 86.8186C49.7029 82.8736 46.4813 79.6946 42.4639 79.6946ZM42.4445 90.7636C40.2514 90.754 38.495 88.9921 38.5047 86.7994C38.5144 84.6354 40.2902 82.8831 42.4639 82.8927C44.7443 82.9023 46.4328 84.7886 46.4134 86.8569C46.3745 89.0209 44.6279 90.7636 42.4445 90.7636Z" fill="#0E4F7F"/>
<path d="M112.38 93.4829C110.759 88.9538 109.139 84.4152 107.518 79.8861C107.412 79.5893 107.412 79.5797 107.062 79.5797C106.063 79.5797 105.063 79.5797 104.064 79.5797C103.676 79.5797 103.705 79.5414 103.569 79.9244C101.871 84.4535 100.173 88.9826 98.4744 93.5116C98.4356 93.617 98.3774 93.7127 98.3871 93.8372C98.4259 93.8468 98.455 93.8659 98.4938 93.8659C99.4836 93.8659 100.473 93.8659 101.453 93.8755C101.618 93.8755 101.696 93.8085 101.745 93.6553C101.9 93.1478 102.075 92.6499 102.249 92.1424C102.395 91.7211 102.307 91.7689 102.754 91.7689C104.559 91.7689 106.354 91.7689 108.159 91.7689C108.518 91.7689 108.518 91.7689 108.634 92.0945C108.809 92.5828 108.984 93.0712 109.139 93.5691C109.207 93.7797 109.294 93.8563 109.527 93.8563C110.43 93.8372 111.332 93.8468 112.225 93.8468C112.302 93.8468 112.399 93.8755 112.467 93.7989C112.487 93.684 112.409 93.5787 112.38 93.4829ZM103.569 88.5804C103.55 88.5612 103.54 88.5517 103.54 88.5421C103.53 88.5325 103.52 88.5134 103.53 88.5038C104.093 86.6941 104.753 84.9131 105.345 83.1129C105.364 83.0555 105.403 83.0076 105.451 82.9119C106.102 84.8173 106.732 86.6749 107.383 88.5804C106.053 88.5804 104.811 88.5804 103.569 88.5804Z" fill="#0E4F7F"/>
<path d="M81.7645 92.6881C80.241 88.4271 78.7175 84.1565 77.1843 79.8956C77.0581 79.5317 77.1454 79.57 76.7185 79.57C75.719 79.57 74.7195 79.57 73.72 79.57C73.2736 79.57 73.361 79.5317 73.2251 79.9147C71.5366 84.4246 69.8482 88.9346 68.15 93.4445C68.1015 93.569 68.0336 93.6839 68.0336 93.8179C68.1015 93.885 68.1791 93.8658 68.2471 93.8658C69.1689 93.8658 70.1005 93.8562 71.0223 93.8754C71.2552 93.8754 71.3426 93.7892 71.4105 93.5786C71.5755 93.0519 71.7598 92.5253 71.9248 91.9987C71.9733 91.8359 72.0606 91.7688 72.245 91.7688C74.1373 91.7784 76.0198 91.7784 77.912 91.7688C78.1061 91.7688 78.2032 91.8359 78.2517 92.0178C78.4069 92.5253 78.5913 93.0232 78.7563 93.5307C78.863 93.8467 78.863 93.8467 79.1929 93.8562C79.717 93.8562 80.241 93.8562 80.765 93.8562C81.2016 93.8562 81.6383 93.8562 82.1429 93.8562C82.0168 93.4062 81.8906 93.0424 81.7645 92.6881ZM72.8855 88.5899C73.6036 86.6844 74.3216 84.7981 75.0397 82.9213C75.0688 82.9213 75.0882 82.9118 75.1174 82.9118C75.8548 84.7885 76.5729 86.6748 77.3007 88.5994C75.8063 88.5899 74.3702 88.5899 72.8855 88.5899Z" fill="#0E4F7F"/>
</g>
<defs>
<clipPath id="clip0">
<rect width="134" height="94" fill="white"/>
</clipPath>
</defs>
</svg>
